RedHatTextVF-Light.ufo
<glyph name="numbersign" format="2">
  <advance width="674"/>
  <unicode hex="0023"/>
  <outline>
    <contour>
      <point x="69" y="0" type="line"/>
      <point x="116" y="0" type="line"/>
      <point x="194" y="228" type="line"/>
      <point x="397" y="228" type="line"/>
      <point x="319" y="0" type="line"/>
      <point x="366" y="0" type="line"/>
      <point x="444" y="228" type="line"/>
      <point x="582" y="228" type="line"/>
      <point x="582" y="271" type="line"/>
      <point x="459" y="271" type="line"/>
      <point x="513" y="429" type="line"/>
      <point x="630" y="429" type="line"/>
      <point x="630" y="472" type="line"/>
      <point x="528" y="472" type="line"/>
      <point x="606" y="700" type="line"/>
      <point x="559" y="700" type="line"/>
      <point x="481" y="472" type="line"/>
      <point x="278" y="472" type="line"/>
      <point x="356" y="700" type="line"/>
      <point x="309" y="700" type="line"/>
      <point x="231" y="472" type="line"/>
      <point x="92" y="472" type="line"/>
      <point x="92" y="429" type="line"/>
      <point x="216" y="429" type="line"/>
      <point x="162" y="271" type="line"/>
      <point x="44" y="271" type="line"/>
      <point x="44" y="228" type="line"/>
      <point x="147" y="228" type="line"/>
    </contour>
    <contour>
      <point x="209" y="271" type="line"/>
      <point x="263" y="429" type="line"/>
      <point x="466" y="429" type="line"/>
      <point x="412" y="271" type="line"/>
    </contour>
  </outline>
</glyph>
<glyph name="dollar" format="2">
  <advance width="539"/>
  <unicode hex="0024"/>
  <outline>
    <contour>
      <point x="252" y="-67" type="line"/>
      <point x="296" y="-67" type="line"/>
      <point x="296" y="24" type="line"/>
      <point x="411" y="32"/>
      <point x="492" y="102"/>
      <point x="492" y="195" type="curve" smooth="yes"/>
      <point x="492" y="284"/>
      <point x="444" y="333"/>
      <point x="325" y="368" type="curve" smooth="yes"/>
      <point x="296" y="376" type="line"/>
      <point x="296" y="631" type="line"/>
      <point x="348" y="623"/>
      <point x="401" y="598"/>
      <point x="449" y="558" type="curve"/>
      <point x="475" y="595" type="line"/>
      <point x="418" y="641"/>
      <point x="358" y="668"/>
      <point x="296" y="675" type="curve"/>
      <point x="296" y="767" type="line"/>
      <point x="252" y="767" type="line"/>
      <point x="252" y="677" type="line"/>
      <point x="137" y="673"/>
      <point x="59" y="607"/>
      <point x="59" y="514" type="curve" smooth="yes"/>
      <point x="59" y="430"/>
      <point x="108" y="379"/>
      <point x="225" y="345" type="curve" smooth="yes"/>
      <point x="252" y="337" type="line"/>
      <point x="252" y="67" type="line"/>
      <point x="190" y="72"/>
      <point x="128" y="98"/>
      <point x="76" y="139" type="curve"/>
      <point x="51" y="101" type="line"/>
      <point x="105" y="56"/>
      <point x="178" y="28"/>
      <point x="252" y="24" type="curve"/>
    </contour>
    <contour>
      <point x="252" y="386" type="line"/>
      <point x="236" y="391" type="line" smooth="yes"/>
      <point x="143" y="419"/>
      <point x="107" y="454"/>
      <point x="107" y="517" type="curve" smooth="yes"/>
      <point x="107" y="584"/>
      <point x="166" y="631"/>
      <point x="252" y="634" type="curve"/>
    </contour>
    <contour>
      <point x="296" y="67" type="curve"/>
      <point x="296" y="327" type="line"/>
      <point x="316" y="322" type="line" smooth="yes"/>
      <point x="408" y="297"/>
      <point x="444" y="260"/>
      <point x="444" y="191" type="curve" smooth="yes"/>
      <point x="444" y="123"/>
      <point x="384" y="73"/>
    </contour>
  </outline>
</glyph>
<glyph name="parenleft" format="2">
  <advance width="393"/>
  <unicode hex="0028"/>
  <outline>
    <contour>
      <point x="312" y="-221" type="curve"/>
      <point x="338" y="-183" type="line"/>
      <point x="202" y="-100"/>
      <point x="131" y="61"/>
      <point x="131" y="247" type="curve" smooth="yes"/>
      <point x="131" y="434"/>
      <point x="201" y="594"/>
      <point x="338" y="677" type="curve"/>
      <point x="312" y="715" type="line"/>
      <point x="181" y="632"/>
      <point x="79" y="482"/>
      <point x="79" y="247" type="curve" smooth="yes"/>
      <point x="79" y="11"/>
      <point x="181" y="-138"/>
    </contour>
  </outline>
</glyph>
<glyph name="asterisk" format="2">
  <advance width="444"/>
  <unicode hex="002A"/>
  <outline>
    <contour>
      <point x="202" y="350" type="line"/>
      <point x="242" y="350" type="line"/>
      <point x="240" y="496" type="line"/>
      <point x="357" y="420" type="line"/>
      <point x="379" y="453" type="line"/>
      <point x="257" y="530" type="line"/>
      <point x="375" y="604" type="line"/>
      <point x="351" y="637" type="line"/>
      <point x="240" y="565" type="line"/>
      <point x="242" y="700" type="line"/>
      <point x="202" y="700" type="line"/>
      <point x="204" y="564" type="line"/>
      <point x="91" y="637" type="line"/>
      <point x="70" y="604" type="line"/>
      <point x="187" y="531" type="line"/>
      <point x="64" y="454" type="line"/>
      <point x="87" y="420" type="line"/>
      <point x="204" y="496" type="line"/>
    </contour>
  </outline>
</glyph>
<glyph name="comma" format="2">
  <advance width="250"/>
  <unicode hex="002C"/>
  <outline>
    <contour>
      <point x="57" y="-152" type="line"/>
      <point x="98" y="-152" type="line"/>
      <point x="170" y="60" type="line"/>
      <point x="113" y="60" type="line"/>
    </contour>
  </outline>
</glyph>
<glyph name="period" format="2">
  <advance width="250"/>
  <unicode hex="002E"/>
  <outline>
    <contour>
      <point x="125" y="-8" type="curve" smooth="yes"/>
      <point x="150" y="-8"/>
      <point x="171" y="12"/>
      <point x="171" y="39" type="curve" smooth="yes"/>
      <point x="171" y="64"/>
      <point x="150" y="85"/>
      <point x="125" y="85" type="curve" smooth="yes"/>
      <point x="100" y="85"/>
      <point x="79" y="64"/>
      <point x="79" y="39" type="curve" smooth="yes"/>
      <point x="79" y="12"/>
      <point x="100" y="-8"/>
    </contour>
  </outline>
</glyph>
<glyph name="four" format="2">
  <advance width="600"/>
  <unicode hex="0034"/>
  <outline>
    <contour>
      <point x="417" y="0" type="line"/>
      <point x="467" y="0" type="line"/>
      <point x="467" y="195" type="line"/>
      <point x="569" y="195" type="line"/>
      <point x="569" y="240" type="line"/>
      <point x="467" y="240" type="line"/>
      <point x="467" y="700" type="line"/>
      <point x="415" y="700" type="line"/>
      <point x="39" y="234" type="line"/>
      <point x="39" y="195" type="line"/>
      <point x="417" y="195" type="line"/>
    </contour>
    <contour>
      <point x="103" y="240" type="line"/>
      <point x="417" y="629" type="line"/>
      <point x="417" y="240" type="line"/>
    </contour>
  </outline>
</glyph>
<glyph name="at" format="2">
  <advance width="763"/>
  <unicode hex="0040"/>
  <outline>
    <contour>
      <point x="395" y="-144" type="curve" smooth="yes"/>
      <point x="461" y="-144"/>
      <point x="524" y="-128"/>
      <point x="577" y="-98" type="curve"/>
      <point x="561" y="-59" type="line"/>
      <point x="513" y="-87"/>
      <point x="457" y="-104"/>
      <point x="399" y="-104" type="curve" smooth="yes"/>
      <point x="226" y="-104"/>
      <point x="99" y="29"/>
      <point x="99" y="208" type="curve" smooth="yes"/>
      <point x="99" y="391"/>
      <point x="227" y="534"/>
      <point x="388" y="534" type="curve" smooth="yes"/>
      <point x="546" y="534"/>
      <point x="664" y="419"/>
      <point x="664" y="266" type="curve" smooth="yes"/>
      <point x="664" y="168"/>
      <point x="610" y="97"/>
      <point x="545" y="97" type="curve" smooth="yes"/>
      <point x="499" y="97"/>
      <point x="478" y="125"/>
      <point x="488" y="176" type="curve" smooth="yes"/>
      <point x="524" y="365" type="line"/>
      <point x="481" y="365" type="line"/>
      <point x="476" y="336" type="line"/>
      <point x="452" y="362"/>
      <point x="416" y="378"/>
      <point x="378" y="378" type="curve" smooth="yes"/>
      <point x="290" y="378"/>
      <point x="218" y="303"/>
      <point x="218" y="203" type="curve" smooth="yes"/>
      <point x="218" y="117"/>
      <point x="277" y="53"/>
      <point x="355" y="53" type="curve" smooth="yes"/>
      <point x="393" y="53"/>
      <point x="428" y="69"/>
      <point x="456" y="99" type="curve"/>
      <point x="472" y="72"/>
      <point x="502" y="57"/>
      <point x="542" y="57" type="curve" smooth="yes"/>
      <point x="630" y="57"/>
      <point x="706" y="141"/>
      <point x="706" y="266" type="curve" smooth="yes"/>
      <point x="706" y="441"/>
      <point x="571" y="574"/>
      <point x="390" y="574" type="curve" smooth="yes"/>
      <point x="199" y="574"/>
      <point x="57" y="416"/>
      <point x="57" y="207" type="curve" smooth="yes"/>
      <point x="57" y="7"/>
      <point x="201" y="-144"/>
    </contour>
    <contour>
      <point x="363" y="91" type="curve" smooth="yes"/>
      <point x="303" y="91"/>
      <point x="262" y="138"/>
      <point x="262" y="205" type="curve" smooth="yes"/>
      <point x="262" y="280"/>
      <point x="313" y="339"/>
      <point x="375" y="339" type="curve" smooth="yes"/>
      <point x="414" y="339"/>
      <point x="449" y="321"/>
      <point x="467" y="291" type="curve"/>
      <point x="446" y="178" type="line" smooth="yes"/>
      <point x="443" y="161"/>
      <point x="442" y="145"/>
      <point x="445" y="131" type="curve"/>
      <point x="422" y="105"/>
      <point x="393" y="91"/>
    </contour>
  </outline>
</glyph>
<glyph name="B" format="2">
  <advance width="653"/>
  <unicode hex="0042"/>
  <guideline x="241" y="433" angle="90.0" identifier="XMEVKfFA3g"/>
  <outline>
    <contour>
      <point x="92" y="0" type="line"/>
      <point x="368" y="0" type="line" smooth="yes"/>
      <point x="508" y="0"/>
      <point x="592" y="79"/>
      <point x="592" y="194" type="curve" smooth="yes"/>
      <point x="592" y="285"/>
      <point x="533" y="348"/>
      <point x="428" y="365" type="curve"/>
      <point x="515" y="385"/>
      <point x="563" y="444"/>
      <point x="563" y="525" type="curve" smooth="yes"/>
      <point x="563" y="630"/>
      <point x="487" y="700"/>
      <point x="358" y="700" type="curve" smooth="yes"/>
      <point x="92" y="700" type="line"/>
    </contour>
    <contour>
      <point x="144" y="388" type="line"/>
      <point x="144" y="653" type="line"/>
      <point x="356" y="653" type="line" smooth="yes"/>
      <point x="453" y="653"/>
      <point x="512" y="599"/>
      <point x="512" y="520" type="curve" smooth="yes"/>
      <point x="512" y="441"/>
      <point x="454" y="388"/>
      <point x="353" y="388" type="curve" smooth="yes"/>
    </contour>
    <contour>
      <point x="144" y="47" type="line"/>
      <point x="144" y="342" type="line"/>
      <point x="361" y="342" type="line" smooth="yes"/>
      <point x="474" y="342"/>
      <point x="540" y="283"/>
      <point x="540" y="195" type="curve" smooth="yes"/>
      <point x="540" y="107"/>
      <point x="472" y="47"/>
      <point x="364" y="47" type="curve" smooth="yes"/>
    </contour>
  </outline>
</glyph>
<glyph name="D" format="2">
  <advance width="720"/>
  <unicode hex="0044"/>
  <guideline x="262" y="481" angle="90.0" identifier="wg5F9Wpo0A"/>
  <anchor x="354" y="700" name="top"/>
  <outline>
    <contour>
      <point x="144" y="47" type="line"/>
      <point x="144" y="653" type="line"/>
      <point x="316" y="653" type="line" smooth="yes"/>
      <point x="482" y="653"/>
      <point x="608" y="523"/>
      <point x="608" y="350" type="curve" smooth="yes"/>
      <point x="608" y="177"/>
      <point x="482" y="47"/>
      <point x="316" y="47" type="curve" smooth="yes"/>
    </contour>
    <contour>
      <point x="92" y="0" type="line"/>
      <point x="310" y="0" type="line" smooth="yes"/>
      <point x="519" y="0"/>
      <point x="660" y="150"/>
      <point x="660" y="350" type="curve" smooth="yes"/>
      <point x="660" y="550"/>
      <point x="519" y="700"/>
      <point x="310" y="700" type="curve" smooth="yes"/>
      <point x="92" y="700" type="line"/>
    </contour>
  </outline>
</glyph>
<glyph name="E" format="2">
  <advance width="606"/>
  <unicode hex="0045"/>
  <guideline x="243" y="539" angle="90.0" identifier="A1odUCKNQQ"/>
  <anchor x="337" y="700" name="top"/>
  <anchor x="560" y="0" name="bottom"/>
  <outline>
    <contour>
      <point x="92" y="0" type="line"/>
      <point x="560" y="0" type="line"/>
      <point x="560" y="47" type="line"/>
      <point x="144" y="47" type="line"/>
      <point x="144" y="330" type="line"/>
      <point x="429" y="330" type="line"/>
      <point x="429" y="377" type="line"/>
      <point x="144" y="377" type="line"/>
      <point x="144" y="653" type="line"/>
      <point x="556" y="653" type="line"/>
      <point x="556" y="700" type="line"/>
      <point x="92" y="700" type="line"/>
    </contour>
  </outline>
</glyph>
<glyph name="K" format="2">
  <advance width="576"/>
  <unicode hex="004B"/>
  <anchor x="330" y="0" name="bottom"/>
  <outline>
    <contour>
      <point x="92" y="0" type="line"/>
      <point x="144" y="0" type="line"/>
      <point x="144" y="339" type="line"/>
      <point x="501" y="0" type="line"/>
      <point x="580" y="0" type="line"/>
      <point x="203" y="352" type="line"/>
      <point x="574" y="700" type="line"/>
      <point x="501" y="700" type="line"/>
      <point x="144" y="361" type="line"/>
      <point x="144" y="700" type="line"/>
      <point x="92" y="700" type="line"/>
    </contour>
  </outline>
</glyph>
<glyph name="N" format="2">
  <advance width="726"/>
  <unicode hex="004E"/>
  <anchor x="356" y="700" name="top"/>
  <anchor x="356" y="0" name="bottom"/>
  <outline>
    <contour>
      <point x="92" y="0" type="line"/>
      <point x="141" y="0" type="line"/>
      <point x="141" y="631" type="line"/>
      <point x="586" y="0" type="line"/>
      <point x="634" y="0" type="line"/>
      <point x="634" y="700" type="line"/>
      <point x="585" y="700" type="line"/>
      <point x="585" y="83" type="line"/>
      <point x="150" y="700" type="line"/>
      <point x="92" y="700" type="line"/>
    </contour>
  </outline>
</glyph>
<glyph name="O" format="2">
  <advance width="808"/>
  <unicode hex="004F"/>
  <anchor x="404" y="700" name="top"/>
  <outline>
    <contour>
      <point x="404" y="-11" type="curve" smooth="yes"/>
      <point x="596" y="-11"/>
      <point x="748" y="148"/>
      <point x="748" y="350" type="curve" smooth="yes"/>
      <point x="748" y="552"/>
      <point x="596" y="711"/>
      <point x="404" y="711" type="curve" smooth="yes"/>
      <point x="212" y="711"/>
      <point x="60" y="552"/>
      <point x="60" y="350" type="curve" smooth="yes"/>
      <point x="60" y="148"/>
      <point x="212" y="-11"/>
    </contour>
    <contour>
      <point x="404" y="37" type="curve" smooth="yes"/>
      <point x="239" y="37"/>
      <point x="112" y="174"/>
      <point x="112" y="350" type="curve" smooth="yes"/>
      <point x="112" y="526"/>
      <point x="239" y="663"/>
      <point x="404" y="663" type="curve" smooth="yes"/>
      <point x="569" y="663"/>
      <point x="696" y="526"/>
      <point x="696" y="350" type="curve" smooth="yes"/>
      <point x="696" y="174"/>
      <point x="569" y="37"/>
    </contour>
  </outline>
</glyph>
<glyph name="Q" format="2">
  <advance width="808"/>
  <unicode hex="0051"/>
  <outline>
    <contour>
      <point x="656" y="-19" type="line"/>
      <point x="712" y="-11" type="line"/>
      <point x="633" y="79" type="line"/>
      <point x="704" y="145"/>
      <point x="748" y="241"/>
      <point x="748" y="350" type="curve" smooth="yes"/>
      <point x="748" y="552"/>
      <point x="596" y="711"/>
      <point x="404" y="711" type="curve" smooth="yes"/>
      <point x="212" y="711"/>
      <point x="60" y="552"/>
      <point x="60" y="350" type="curve" smooth="yes"/>
      <point x="60" y="148"/>
      <point x="212" y="-11"/>
      <point x="404" y="-11" type="curve" smooth="yes"/>
      <point x="476" y="-11"/>
      <point x="542" y="11"/>
      <point x="596" y="49" type="curve"/>
    </contour>
    <contour>
      <point x="404" y="37" type="curve" smooth="yes"/>
      <point x="239" y="37"/>
      <point x="112" y="174"/>
      <point x="112" y="350" type="curve" smooth="yes"/>
      <point x="112" y="526"/>
      <point x="239" y="663"/>
      <point x="404" y="663" type="curve" smooth="yes"/>
      <point x="569" y="663"/>
      <point x="696" y="526"/>
      <point x="696" y="350" type="curve" smooth="yes"/>
      <point x="696" y="256"/>
      <point x="660" y="173"/>
      <point x="601" y="117" type="curve"/>
      <point x="511" y="221" type="line"/>
      <point x="455" y="213" type="line"/>
      <point x="564" y="86" type="line"/>
      <point x="519" y="55"/>
      <point x="464" y="37"/>
    </contour>
  </outline>
</glyph>
<glyph name="S" format="2">
  <advance width="614"/>
  <unicode hex="0053"/>
  <note>
Version created Fri Aug  3 17:49:29 2018
</note>
  <anchor x="293" y="702" name="top"/>
  <anchor x="302" y="2" name="bottom"/>
  <outline>
    <contour>
      <point x="310" y="-11" type="curve"/>
      <point x="459" y="-11"/>
      <point x="569" y="76"/>
      <point x="569" y="195" type="curve"/>
      <point x="569" y="299"/>
      <point x="505" y="355"/>
      <point x="354" y="381" type="curve" smooth="yes"/>
      <point x="250" y="399" type="line" smooth="yes"/>
      <point x="145" y="418"/>
      <point x="104" y="452"/>
      <point x="104" y="520" type="curve" smooth="yes"/>
      <point x="104" y="603"/>
      <point x="181" y="663"/>
      <point x="286" y="663" type="curve" smooth="yes"/>
      <point x="370" y="663"/>
      <point x="458" y="632"/>
      <point x="529" y="577" type="curve"/>
      <point x="558" y="621" type="line"/>
      <point x="465" y="685"/>
      <point x="380" y="711"/>
      <point x="285" y="711" type="curve"/>
      <point x="148" y="711"/>
      <point x="52" y="631"/>
      <point x="52" y="516" type="curve"/>
      <point x="52" y="424"/>
      <point x="111" y="372"/>
      <point x="241" y="349" type="curve" smooth="yes"/>
      <point x="345" y="331" type="line" smooth="yes"/>
      <point x="471" y="309"/>
      <point x="517" y="272"/>
      <point x="517" y="196" type="curve" smooth="yes"/>
      <point x="517" y="106"/>
      <point x="428" y="37"/>
      <point x="311" y="37" type="curve" smooth="yes"/>
      <point x="213" y="37"/>
      <point x="147" y="67"/>
      <point x="65" y="150" type="curve"/>
      <point x="30" y="114" type="line"/>
      <point x="106" y="33"/>
      <point x="198" y="-11"/>
    </contour>
  </outline>
</glyph>
<glyph name="T" format="2">
  <advance width="604"/>
  <unicode hex="0054"/>
  <anchor x="302" y="700" name="top"/>
  <anchor x="302" y="0" name="bottom"/>
  <outline>
    <contour>
      <point x="276" y="0" type="line"/>
      <point x="328" y="0" type="line"/>
      <point x="328" y="653" type="line"/>
      <point x="574" y="653" type="line"/>
      <point x="574" y="700" type="line"/>
      <point x="30" y="700" type="line"/>
      <point x="30" y="653" type="line"/>
      <point x="276" y="653" type="line"/>
    </contour>
  </outline>
</glyph>
<glyph name="U" format="2">
  <advance width="702"/>
  <unicode hex="0055"/>
  <anchor x="346" y="700" name="top"/>
  <anchor x="433" y="0" name="bottom"/>
  <outline>
    <contour>
      <point x="351" y="-11" type="curve" smooth="yes"/>
      <point x="513" y="-11"/>
      <point x="624" y="99"/>
      <point x="624" y="294" type="curve" smooth="yes"/>
      <point x="624" y="700" type="line"/>
      <point x="572" y="700" type="line"/>
      <point x="572" y="294" type="line" smooth="yes"/>
      <point x="572" y="130"/>
      <point x="480" y="37"/>
      <point x="351" y="37" type="curve" smooth="yes"/>
      <point x="222" y="37"/>
      <point x="130" y="130"/>
      <point x="130" y="294" type="curve" smooth="yes"/>
      <point x="130" y="700" type="line"/>
      <point x="78" y="700" type="line"/>
      <point x="78" y="294" type="line" smooth="yes"/>
      <point x="78" y="99"/>
      <point x="189" y="-11"/>
    </contour>
  </outline>
</glyph>
<glyph name="W" format="2">
  <advance width="874"/>
  <unicode hex="0057"/>
  <guideline x="438" y="700" angle="0.0" color="0.999,0.001,0.001,0.999" identifier="xVZBJ1giCn"/>
  <anchor x="438" y="700" name="top"/>
  <outline>
    <contour>
      <point x="216" y="0" type="line"/>
      <point x="266" y="0" type="line"/>
      <point x="437" y="626" type="line"/>
      <point x="608" y="0" type="line"/>
      <point x="658" y="0" type="line"/>
      <point x="829" y="700" type="line"/>
      <point x="779" y="700" type="line"/>
      <point x="631" y="87" type="line"/>
      <point x="464" y="700" type="line"/>
      <point x="412" y="700" type="line"/>
      <point x="245" y="87" type="line"/>
      <point x="97" y="700" type="line"/>
      <point x="45" y="700" type="line"/>
    </contour>
  </outline>
</glyph>
<glyph name="Y" format="2">
  <advance width="621"/>
  <unicode hex="0059"/>
  <guideline x="310" identifier="qb5EYBX0Za"/>
  <anchor x="310" y="700" name="top"/>
  <outline>
    <contour>
      <point x="284" y="0" type="line"/>
      <point x="336" y="0" type="line"/>
      <point x="336" y="289" type="line"/>
      <point x="606" y="700" type="line"/>
      <point x="548" y="700" type="line"/>
      <point x="312" y="336" type="line"/>
      <point x="76" y="700" type="line"/>
      <point x="15" y="700" type="line"/>
      <point x="284" y="291" type="line"/>
    </contour>
  </outline>
</glyph>
<glyph name="backslash" format="2">
  <advance width="452"/>
  <unicode hex="005C"/>
  <outline>
    <contour>
      <point x="445" y="-209" type="line"/>
      <point x="499" y="-209" type="line"/>
      <point x="100" y="700" type="line"/>
      <point x="46" y="700" type="line"/>
    </contour>
  </outline>
</glyph>
<glyph name="c" format="2">
  <advance width="501"/>
  <unicode hex="0063"/>
  <guideline x="471" y="275" angle="90.0" identifier="rTMX5HjvE5"/>
  <anchor x="285" y="481" name="top"/>
  <anchor x="286" y="0" name="bottom"/>
  <outline>
    <contour>
      <point x="291" y="-10" type="curve" smooth="yes"/>
      <point x="358" y="-10"/>
      <point x="423" y="16"/>
      <point x="471" y="62" type="curve"/>
      <point x="440" y="99" type="line"/>
      <point x="403" y="60"/>
      <point x="346" y="36"/>
      <point x="293" y="36" type="curve" smooth="yes"/>
      <point x="187" y="36"/>
      <point x="106" y="127"/>
      <point x="106" y="240" type="curve" smooth="yes"/>
      <point x="106" y="353"/>
      <point x="187" y="443"/>
      <point x="293" y="443" type="curve" smooth="yes"/>
      <point x="346" y="443"/>
      <point x="403" y="419"/>
      <point x="440" y="380" type="curve"/>
      <point x="471" y="417" type="line"/>
      <point x="423" y="463"/>
      <point x="358" y="489"/>
      <point x="291" y="489" type="curve" smooth="yes"/>
      <point x="159" y="489"/>
      <point x="56" y="380"/>
      <point x="56" y="240" type="curve" smooth="yes"/>
      <point x="56" y="100"/>
      <point x="159" y="-10"/>
    </contour>
  </outline>
</glyph>
<glyph name="j" format="2">
  <advance width="206"/>
  <unicode hex="006A"/>
  <outline>
    <contour>
      <point x="103" y="608" type="curve" smooth="yes"/>
      <point x="128" y="608"/>
      <point x="149" y="629"/>
      <point x="149" y="654" type="curve" smooth="yes"/>
      <point x="149" y="679"/>
      <point x="128" y="700"/>
      <point x="103" y="700" type="curve" smooth="yes"/>
      <point x="78" y="700"/>
      <point x="57" y="679"/>
      <point x="57" y="654" type="curve" smooth="yes"/>
      <point x="57" y="629"/>
      <point x="78" y="608"/>
    </contour>
    <contour>
      <point x="20" y="-219" type="curve" smooth="yes"/>
      <point x="90" y="-219"/>
      <point x="128" y="-177"/>
      <point x="128" y="-105" type="curve" smooth="yes"/>
      <point x="128" y="481" type="line"/>
      <point x="78" y="481" type="line"/>
      <point x="78" y="-102" type="line" smooth="yes"/>
      <point x="78" y="-151"/>
      <point x="61" y="-173"/>
      <point x="17" y="-173" type="curve" smooth="yes"/>
      <point x="6" y="-173"/>
      <point x="-6" y="-170"/>
      <point x="-16" y="-167" type="curve"/>
      <point x="-16" y="-215" type="line"/>
      <point x="-5" y="-217"/>
      <point x="6" y="-219"/>
    </contour>
  </outline>
</glyph>
<glyph name="k" format="2">
  <advance width="459"/>
  <unicode hex="006B"/>
  <anchor x="242" y="0" name="bottom"/>
  <outline>
    <contour>
      <point x="78" y="0" type="line"/>
      <point x="128" y="0" type="line"/>
      <point x="128" y="234" type="line"/>
      <point x="378" y="0" type="line"/>
      <point x="448" y="0" type="line"/>
      <point x="177" y="249" type="line"/>
      <point x="437" y="481" type="line"/>
      <point x="372" y="481" type="line"/>
      <point x="128" y="260" type="line"/>
      <point x="128" y="737" type="line"/>
      <point x="78" y="725" type="line"/>
    </contour>
  </outline>
</glyph>
<glyph name="o" format="2">
  <advance width="572"/>
  <unicode hex="006F"/>
  <guideline x="152" y="235" angle="90.0" identifier="GvYSas6RjR"/>
  <anchor x="285" y="481" name="top"/>
  <outline>
    <contour>
      <point x="286" y="-10" type="curve" smooth="yes"/>
      <point x="416" y="-10"/>
      <point x="516" y="98"/>
      <point x="516" y="240" type="curve" smooth="yes"/>
      <point x="516" y="381"/>
      <point x="416" y="489"/>
      <point x="286" y="489" type="curve" smooth="yes"/>
      <point x="156" y="489"/>
      <point x="56" y="381"/>
      <point x="56" y="240" type="curve" smooth="yes"/>
      <point x="56" y="98"/>
      <point x="156" y="-10"/>
    </contour>
    <contour>
      <point x="286" y="36" type="curve" smooth="yes"/>
      <point x="183" y="36"/>
      <point x="106" y="123"/>
      <point x="106" y="240" type="curve" smooth="yes"/>
      <point x="106" y="356"/>
      <point x="183" y="443"/>
      <point x="286" y="443" type="curve" smooth="yes"/>
      <point x="389" y="443"/>
      <point x="466" y="356"/>
      <point x="466" y="240" type="curve" smooth="yes"/>
      <point x="466" y="123"/>
      <point x="389" y="36"/>
    </contour>
  </outline>
</glyph>
<glyph name="q" format="2">
  <advance width="567"/>
  <unicode hex="0071"/>
  <outline>
    <contour>
      <point x="439" y="-209" type="line"/>
      <point x="489" y="-209" type="line"/>
      <point x="489" y="481" type="line"/>
      <point x="439" y="481" type="line"/>
      <point x="439" y="417" type="line"/>
      <point x="398" y="464"/>
      <point x="342" y="487"/>
      <point x="283" y="487" type="curve" smooth="yes"/>
      <point x="152" y="487"/>
      <point x="56" y="376"/>
      <point x="56" y="239" type="curve" smooth="yes"/>
      <point x="56" y="101"/>
      <point x="153" y="-8"/>
      <point x="281" y="-8" type="curve" smooth="yes"/>
      <point x="344" y="-8"/>
      <point x="399" y="15"/>
      <point x="439" y="65" type="curve"/>
    </contour>
    <contour>
      <point x="289" y="38" type="curve" smooth="yes"/>
      <point x="186" y="38"/>
      <point x="106" y="123"/>
      <point x="106" y="240" type="curve" smooth="yes"/>
      <point x="106" y="356"/>
      <point x="184" y="441"/>
      <point x="289" y="441" type="curve" smooth="yes"/>
      <point x="352" y="441"/>
      <point x="407" y="412"/>
      <point x="439" y="367" type="curve"/>
      <point x="439" y="111" type="line"/>
      <point x="407" y="66"/>
      <point x="353" y="38"/>
    </contour>
  </outline>
</glyph>
<glyph name="s" format="2">
  <advance width="436"/>
  <unicode hex="0073"/>
  <note>
Version created Fri Aug  3 17:49:29 2018
</note>
  <guideline x="447" y="107" angle="90.0" identifier="q0SnZ654yh"/>
  <anchor x="216" y="481" name="top"/>
  <anchor x="216" y="0" name="bottom"/>
  <outline>
    <contour>
      <point x="216" y="-10" type="curve" smooth="yes"/>
      <point x="318" y="-10"/>
      <point x="399" y="50"/>
      <point x="399" y="135" type="curve" smooth="yes"/>
      <point x="399" y="202"/>
      <point x="358" y="244"/>
      <point x="260" y="262" type="curve" smooth="yes"/>
      <point x="183" y="276" type="line" smooth="yes"/>
      <point x="115" y="288"/>
      <point x="91" y="312"/>
      <point x="91" y="355" type="curve" smooth="yes"/>
      <point x="91" y="413"/>
      <point x="137" y="445"/>
      <point x="211" y="445" type="curve"/>
      <point x="261" y="445"/>
      <point x="311" y="425"/>
      <point x="362" y="389" type="curve"/>
      <point x="388" y="428" type="line"/>
      <point x="328" y="470"/>
      <point x="275" y="489"/>
      <point x="211" y="489" type="curve"/>
      <point x="114" y="489"/>
      <point x="43" y="434"/>
      <point x="43" y="352" type="curve" smooth="yes"/>
      <point x="43" y="286"/>
      <point x="84" y="246"/>
      <point x="177" y="230" type="curve" smooth="yes"/>
      <point x="253" y="217" type="line" smooth="yes"/>
      <point x="322" y="204"/>
      <point x="351" y="176"/>
      <point x="351" y="134" type="curve" smooth="yes"/>
      <point x="351" y="73"/>
      <point x="293" y="34"/>
      <point x="215" y="34" type="curve" smooth="yes"/>
      <point x="157" y="34"/>
      <point x="115" y="55"/>
      <point x="60" y="100" type="curve"/>
      <point x="30" y="64" type="line"/>
      <point x="79" y="19"/>
      <point x="142" y="-10"/>
    </contour>
  </outline>
</glyph>
<glyph name="u" format="2">
  <advance width="535"/>
  <unicode hex="0075"/>
  <anchor x="266" y="481" name="top"/>
  <anchor x="457" y="0" name="bottom"/>
  <outline>
    <contour>
      <point x="254" y="-8" type="curve" smooth="yes"/>
      <point x="321" y="-8"/>
      <point x="371" y="22"/>
      <point x="407" y="77" type="curve"/>
      <point x="407" y="0" type="line"/>
      <point x="457" y="0" type="line"/>
      <point x="457" y="481" type="line"/>
      <point x="407" y="481" type="line"/>
      <point x="407" y="120" type="line"/>
      <point x="376" y="64"/>
      <point x="326" y="36"/>
      <point x="268" y="36" type="curve" smooth="yes"/>
      <point x="180" y="36"/>
      <point x="126" y="95"/>
      <point x="126" y="188" type="curve" smooth="yes"/>
      <point x="126" y="481" type="line"/>
      <point x="76" y="481" type="line"/>
      <point x="76" y="174" type="line" smooth="yes"/>
      <point x="76" y="66"/>
      <point x="148" y="-8"/>
    </contour>
  </outline>
</glyph>
<glyph name="w" format="2">
  <advance width="676"/>
  <unicode hex="0077"/>
  <guideline x="284" y="72" angle="0.0" identifier="xcLKGF53Pu"/>
  <guideline x="338" y="481" angle="90.0" identifier="vVjKPaYAoW"/>
  <anchor x="338" y="481" name="top"/>
  <outline>
    <contour>
      <point x="164" y="0" type="line"/>
      <point x="214" y="0" type="line"/>
      <point x="337" y="412" type="line"/>
      <point x="463" y="0" type="line"/>
      <point x="512" y="0" type="line"/>
      <point x="645" y="481" type="line"/>
      <point x="596" y="481" type="line"/>
      <point x="486" y="71" type="line"/>
      <point x="361" y="481" type="line"/>
      <point x="314" y="481" type="line"/>
      <point x="191" y="71" type="line"/>
      <point x="80" y="481" type="line"/>
      <point x="31" y="481" type="line"/>
    </contour>
  </outline>
</glyph>
<glyph name="x" format="2">
  <advance width="460"/>
  <unicode hex="0078"/>
  <outline>
    <contour>
      <point x="14" y="0" type="line"/>
      <point x="70" y="0" type="line"/>
      <point x="228" y="215" type="line"/>
      <point x="387" y="0" type="line"/>
      <point x="446" y="0" type="line"/>
      <point x="259" y="250" type="line"/>
      <point x="431" y="481" type="line"/>
      <point x="375" y="481" type="line"/>
      <point x="230" y="285" type="line"/>
      <point x="84" y="481" type="line"/>
      <point x="25" y="481" type="line"/>
      <point x="199" y="249" type="line"/>
    </contour>
  </outline>
</glyph>
<glyph name="y" format="2">
  <advance width="475"/>
  <unicode hex="0079"/>
  <anchor x="233" y="481" name="top"/>
  <outline>
    <contour>
      <point x="89" y="-219" type="curve" smooth="yes"/>
      <point x="146" y="-219"/>
      <point x="176" y="-194"/>
      <point x="206" y="-124" type="curve" smooth="yes"/>
      <point x="457" y="481" type="line"/>
      <point x="401" y="481" type="line"/>
      <point x="234" y="64" type="line"/>
      <point x="74" y="481" type="line"/>
      <point x="18" y="481" type="line"/>
      <point x="207" y="3" type="line"/>
      <point x="162" y="-105" type="line" smooth="yes"/>
      <point x="142" y="-154"/>
      <point x="120" y="-173"/>
      <point x="85" y="-173" type="curve" smooth="yes"/>
      <point x="73" y="-173"/>
      <point x="64" y="-171"/>
      <point x="47" y="-165" type="curve"/>
      <point x="47" y="-212" type="line"/>
      <point x="63" y="-217"/>
      <point x="76" y="-219"/>
    </contour>
  </outline>
</glyph>
<glyph name="cent" format="2">
  <advance width="515"/>
  <unicode hex="00A2"/>
  <outline>
    <contour>
      <point x="262" y="-120" type="line"/>
      <point x="306" y="-120" type="line"/>
      <point x="306" y="-7" type="line"/>
      <point x="368" y="-3"/>
      <point x="427" y="22"/>
      <point x="471" y="65" type="curve"/>
      <point x="440" y="102" type="line"/>
      <point x="406" y="66"/>
      <point x="355" y="43"/>
      <point x="306" y="39" type="curve"/>
      <point x="306" y="446" type="line"/>
      <point x="355" y="442"/>
      <point x="406" y="419"/>
      <point x="440" y="383" type="curve"/>
      <point x="471" y="420" type="line"/>
      <point x="427" y="463"/>
      <point x="368" y="488"/>
      <point x="306" y="492" type="curve"/>
      <point x="306" y="605" type="line"/>
      <point x="262" y="605" type="line"/>
      <point x="262" y="490" type="line"/>
      <point x="144" y="476"/>
      <point x="56" y="373"/>
      <point x="56" y="243" type="curve" smooth="yes"/>
      <point x="56" y="113"/>
      <point x="144" y="10"/>
      <point x="262" y="-5" type="curve"/>
    </contour>
    <contour>
      <point x="106" y="243" type="curve" smooth="yes"/>
      <point x="106" y="345"/>
      <point x="172" y="428"/>
      <point x="262" y="443" type="curve"/>
      <point x="262" y="42" type="line"/>
      <point x="172" y="57"/>
      <point x="106" y="141"/>
    </contour>
  </outline>
</glyph>
<glyph name="uni00A6" format="2">
  <advance width="275"/>
  <unicode hex="00A6"/>
  <outline>
    <contour>
      <point x="114" y="288" type="line"/>
      <point x="161" y="288" type="line"/>
      <point x="161" y="700" type="line"/>
      <point x="114" y="700" type="line"/>
    </contour>
    <contour>
      <point x="114" y="-209" type="line"/>
      <point x="161" y="-209" type="line"/>
      <point x="161" y="203" type="line"/>
      <point x="114" y="203" type="line"/>
    </contour>
  </outline>
</glyph>
<glyph name="section" format="2">
  <advance width="562"/>
  <unicode hex="00A7"/>
  <outline>
    <contour>
      <point x="282" y="-49" type="curve" smooth="yes"/>
      <point x="377" y="-49"/>
      <point x="438" y="3"/>
      <point x="438" y="81" type="curve" smooth="yes"/>
      <point x="438" y="128"/>
      <point x="417" y="165"/>
      <point x="376" y="191" type="curve"/>
      <point x="444" y="205"/>
      <point x="487" y="250"/>
      <point x="487" y="313" type="curve" smooth="yes"/>
      <point x="487" y="384"/>
      <point x="451" y="421"/>
      <point x="357" y="454" type="curve" smooth="yes"/>
      <point x="252" y="491" type="line" smooth="yes"/>
      <point x="199" y="507"/>
      <point x="174" y="536"/>
      <point x="174" y="580" type="curve" smooth="yes"/>
      <point x="174" y="633"/>
      <point x="215" y="665"/>
      <point x="282" y="665" type="curve" smooth="yes"/>
      <point x="326" y="665"/>
      <point x="376" y="652"/>
      <point x="424" y="623" type="curve"/>
      <point x="445" y="665" type="line"/>
      <point x="394" y="695"/>
      <point x="336" y="711"/>
      <point x="282" y="711" type="curve" smooth="yes"/>
      <point x="187" y="711"/>
      <point x="126" y="659"/>
      <point x="126" y="581" type="curve" smooth="yes"/>
      <point x="126" y="534"/>
      <point x="147" y="497"/>
      <point x="188" y="471" type="curve"/>
      <point x="120" y="457"/>
      <point x="77" y="412"/>
      <point x="77" y="349" type="curve" smooth="yes"/>
      <point x="77" y="278"/>
      <point x="113" y="241"/>
      <point x="207" y="208" type="curve" smooth="yes"/>
      <point x="312" y="171" type="line" smooth="yes"/>
      <point x="365" y="155"/>
      <point x="390" y="126"/>
      <point x="390" y="82" type="curve" smooth="yes"/>
      <point x="390" y="29"/>
      <point x="349" y="-3"/>
      <point x="282" y="-3" type="curve" smooth="yes"/>
      <point x="238" y="-3"/>
      <point x="188" y="10"/>
      <point x="140" y="39" type="curve"/>
      <point x="119" y="-3" type="line"/>
      <point x="170" y="-33"/>
      <point x="228" y="-49"/>
    </contour>
    <contour>
      <point x="329" y="214" type="curve"/>
      <point x="328" y="214"/>
      <point x="327" y="215"/>
      <point x="326" y="215" type="curve" smooth="yes"/>
      <point x="218" y="252" type="line" smooth="yes"/>
      <point x="154" y="274"/>
      <point x="125" y="305"/>
      <point x="125" y="350" type="curve" smooth="yes"/>
      <point x="125" y="405"/>
      <point x="167" y="442"/>
      <point x="235" y="448" type="curve"/>
      <point x="236" y="448"/>
      <point x="237" y="447"/>
      <point x="238" y="447" type="curve" smooth="yes"/>
      <point x="346" y="410" type="line" smooth="yes"/>
      <point x="410" y="388"/>
      <point x="439" y="357"/>
      <point x="439" y="312" type="curve" smooth="yes"/>
      <point x="439" y="257"/>
      <point x="397" y="220"/>
    </contour>
  </outline>
</glyph>
<glyph name="copyright" format="2">
  <advance width="802"/>
  <unicode hex="00A9"/>
  <outline>
    <contour>
      <point x="412" y="167" type="curve" smooth="yes"/>
      <point x="461" y="167"/>
      <point x="509" y="187"/>
      <point x="542" y="222" type="curve"/>
      <point x="515" y="254" type="line"/>
      <point x="488" y="225"/>
      <point x="450" y="207"/>
      <point x="413" y="207" type="curve" smooth="yes"/>
      <point x="341" y="207"/>
      <point x="285" y="270"/>
      <point x="285" y="350" type="curve" smooth="yes"/>
      <point x="285" y="430"/>
      <point x="341" y="493"/>
      <point x="413" y="493" type="curve" smooth="yes"/>
      <point x="450" y="493"/>
      <point x="488" y="475"/>
      <point x="515" y="446" type="curve"/>
      <point x="542" y="478" type="line"/>
      <point x="509" y="513"/>
      <point x="461" y="533"/>
      <point x="412" y="533" type="curve" smooth="yes"/>
      <point x="317" y="533"/>
      <point x="243" y="452"/>
      <point x="243" y="350" type="curve" smooth="yes"/>
      <point x="243" y="248"/>
      <point x="317" y="167"/>
    </contour>
    <contour>
      <point x="401" y="-11" type="curve" smooth="yes"/>
      <point x="591" y="-11"/>
      <point x="743" y="144"/>
      <point x="743" y="350" type="curve" smooth="yes"/>
      <point x="743" y="556"/>
      <point x="591" y="711"/>
      <point x="401" y="711" type="curve" smooth="yes"/>
      <point x="211" y="711"/>
      <point x="59" y="556"/>
      <point x="59" y="350" type="curve" smooth="yes"/>
      <point x="59" y="144"/>
      <point x="211" y="-11"/>
    </contour>
    <contour>
      <point x="401" y="26" type="curve" smooth="yes"/>
      <point x="231" y="26"/>
      <point x="99" y="171"/>
      <point x="99" y="350" type="curve" smooth="yes"/>
      <point x="99" y="529"/>
      <point x="231" y="674"/>
      <point x="401" y="674" type="curve" smooth="yes"/>
      <point x="571" y="674"/>
      <point x="703" y="529"/>
      <point x="703" y="350" type="curve" smooth="yes"/>
      <point x="703" y="171"/>
      <point x="571" y="26"/>
    </contour>
  </outline>
</glyph>
<glyph name="degree" format="2">
  <advance width="402"/>
  <unicode hex="00B0"/>
  <outline>
    <contour>
      <point x="201" y="431" type="curve" smooth="yes"/>
      <point x="279" y="431"/>
      <point x="340" y="496"/>
      <point x="340" y="571" type="curve" smooth="yes"/>
      <point x="340" y="646"/>
      <point x="279" y="711"/>
      <point x="201" y="711" type="curve" smooth="yes"/>
      <point x="123" y="711"/>
      <point x="62" y="646"/>
      <point x="62" y="571" type="curve" smooth="yes"/>
      <point x="62" y="496"/>
      <point x="123" y="431"/>
    </contour>
    <contour>
      <point x="201" y="471" type="curve" smooth="yes"/>
      <point x="148" y="471"/>
      <point x="103" y="516"/>
      <point x="103" y="572" type="curve" smooth="yes"/>
      <point x="103" y="626"/>
      <point x="148" y="671"/>
      <point x="201" y="671" type="curve" smooth="yes"/>
      <point x="254" y="671"/>
      <point x="299" y="626"/>
      <point x="299" y="572" type="curve" smooth="yes"/>
      <point x="299" y="516"/>
      <point x="254" y="471"/>
    </contour>
  </outline>
</glyph>
<glyph name="plusminus" format="2">
  <advance width="600"/>
  <unicode hex="00B1"/>
  <outline>
    <contour>
      <point x="109" y="-1" type="line"/>
      <point x="490" y="-1" type="line"/>
      <point x="490" y="44" type="line"/>
      <point x="109" y="44" type="line"/>
    </contour>
    <contour>
      <point x="277" y="164" type="line"/>
      <point x="322" y="164" type="line"/>
      <point x="322" y="348" type="line"/>
      <point x="490" y="348" type="line"/>
      <point x="490" y="393" type="line"/>
      <point x="322" y="393" type="line"/>
      <point x="322" y="574" type="line"/>
      <point x="277" y="574" type="line"/>
      <point x="277" y="393" type="line"/>
      <point x="109" y="393" type="line"/>
      <point x="109" y="348" type="line"/>
      <point x="277" y="348" type="line"/>
    </contour>
  </outline>
</glyph>
<glyph name="paragraph" format="2">
  <advance width="633"/>
  <unicode hex="00B6"/>
  <outline>
    <contour>
      <point x="318" y="0" type="line"/>
      <point x="370" y="0" type="line"/>
      <point x="370" y="302" type="line"/>
      <point x="489" y="302" type="line"/>
      <point x="489" y="0" type="line"/>
      <point x="541" y="0" type="line"/>
      <point x="541" y="700" type="line"/>
      <point x="255" y="700" type="line" smooth="yes"/>
      <point x="137" y="700"/>
      <point x="55" y="620"/>
      <point x="55" y="502" type="curve" smooth="yes"/>
      <point x="55" y="384"/>
      <point x="137" y="302"/>
      <point x="257" y="302" type="curve" smooth="yes"/>
      <point x="318" y="302" type="line"/>
    </contour>
    <contour>
      <point x="370" y="349" type="line"/>
      <point x="370" y="653" type="line"/>
      <point x="489" y="653" type="line"/>
      <point x="489" y="349" type="line"/>
    </contour>
    <contour>
      <point x="259" y="349" type="line" smooth="yes"/>
      <point x="168" y="349"/>
      <point x="107" y="409"/>
      <point x="107" y="502" type="curve" smooth="yes"/>
      <point x="107" y="593"/>
      <point x="168" y="653"/>
      <point x="259" y="653" type="curve" smooth="yes"/>
      <point x="318" y="653" type="line"/>
      <point x="318" y="349" type="line"/>
    </contour>
  </outline>
</glyph>
<glyph name="cedilla" format="2">
  <advance width="600"/>
  <unicode hex="00B8"/>
  <outline>
    <contour>
      <point x="284" y="-235" type="curve" smooth="yes"/>
      <point x="347" y="-235"/>
      <point x="390" y="-198"/>
      <point x="390" y="-147" type="curve" smooth="yes"/>
      <point x="390" y="-100"/>
      <point x="352" y="-70"/>
      <point x="294" y="-68" type="curve"/>
      <point x="309" y="0" type="line"/>
      <point x="276" y="0" type="line"/>
      <point x="251" y="-96" type="line"/>
      <point x="276" y="-96" type="line" smooth="yes"/>
      <point x="324" y="-96"/>
      <point x="352" y="-115"/>
      <point x="352" y="-149" type="curve" smooth="yes"/>
      <point x="352" y="-183"/>
      <point x="326" y="-204"/>
      <point x="283" y="-204" type="curve" smooth="yes"/>
      <point x="253" y="-204"/>
      <point x="226" y="-194"/>
      <point x="203" y="-175" type="curve"/>
      <point x="181" y="-201" type="line"/>
      <point x="207" y="-224"/>
      <point x="243" y="-235"/>
    </contour>
  </outline>
</glyph>
<glyph name="onesuperior" format="2">
  <advance width="154"/>
  <unicode hex="00B9"/>
  <outline>
    <contour>
      <point x="81" y="350" type="line"/>
      <point x="121" y="350" type="line"/>
      <point x="121" y="700" type="line"/>
      <point x="96" y="700" type="line"/>
      <point x="21" y="668" type="line"/>
      <point x="21" y="631" type="line"/>
      <point x="81" y="657" type="line"/>
    </contour>
  </outline>
</glyph>
<glyph name="AE" format="2">
  <advance width="901"/>
  <unicode hex="00C6"/>
  <outline>
    <contour>
      <point x="11" y="0" type="line"/>
      <point x="65" y="0" type="line"/>
      <point x="155" y="234" type="line"/>
      <point x="483" y="234" type="line"/>
      <point x="574" y="0" type="line"/>
      <point x="855" y="0" type="line"/>
      <point x="855" y="47" type="line"/>
      <point x="609" y="47" type="line"/>
      <point x="498" y="330" type="line"/>
      <point x="724" y="330" type="line"/>
      <point x="724" y="377" type="line"/>
      <point x="479" y="377" type="line"/>
      <point x="371" y="653" type="line"/>
      <point x="851" y="653" type="line"/>
      <point x="851" y="700" type="line"/>
      <point x="287" y="700" type="line"/>
    </contour>
    <contour>
      <point x="172" y="276" type="line"/>
      <point x="319" y="656" type="line"/>
      <point x="467" y="276" type="line"/>
    </contour>
  </outline>
</glyph>
<glyph name="Ccedilla" format="2">
  <advance width="728"/>
  <unicode hex="00C7"/>
  <outline>
    <contour>
      <point x="392" y="-235" type="curve" smooth="yes"/>
      <point x="455" y="-235"/>
      <point x="498" y="-198"/>
      <point x="498" y="-147" type="curve" smooth="yes"/>
      <point x="498" y="-100"/>
      <point x="460" y="-70"/>
      <point x="402" y="-68" type="curve"/>
      <point x="415" y="-11" type="line"/>
      <point x="515" y="-9"/>
      <point x="605" y="29"/>
      <point x="670" y="98" type="curve"/>
      <point x="636" y="137" type="line"/>
      <point x="583" y="75"/>
      <point x="496" y="37"/>
      <point x="406" y="37" type="curve" smooth="yes"/>
      <point x="239" y="37"/>
      <point x="112" y="174"/>
      <point x="112" y="350" type="curve" smooth="yes"/>
      <point x="112" y="526"/>
      <point x="239" y="663"/>
      <point x="406" y="663" type="curve" smooth="yes"/>
      <point x="496" y="663"/>
      <point x="583" y="625"/>
      <point x="636" y="563" type="curve"/>
      <point x="670" y="602" type="line"/>
      <point x="603" y="673"/>
      <point x="510" y="711"/>
      <point x="406" y="711" type="curve" smooth="yes"/>
      <point x="212" y="710"/>
      <point x="60" y="552"/>
      <point x="60" y="350" type="curve" smooth="yes"/>
      <point x="60" y="157"/>
      <point x="199" y="3"/>
      <point x="381" y="-10" type="curve"/>
      <point x="359" y="-96" type="line"/>
      <point x="384" y="-96" type="line" smooth="yes"/>
      <point x="432" y="-96"/>
      <point x="460" y="-115"/>
      <point x="460" y="-149" type="curve" smooth="yes"/>
      <point x="460" y="-183"/>
      <point x="434" y="-204"/>
      <point x="391" y="-204" type="curve" smooth="yes"/>
      <point x="361" y="-204"/>
      <point x="334" y="-194"/>
      <point x="311" y="-175" type="curve"/>
      <point x="289" y="-201" type="line"/>
      <point x="315" y="-224"/>
      <point x="351" y="-235"/>
    </contour>
  </outline>
</glyph>
<glyph name="multiply" format="2">
  <advance width="600"/>
  <unicode hex="00D7"/>
  <outline>
    <contour>
      <point x="149" y="170" type="line"/>
      <point x="299" y="329" type="line"/>
      <point x="448" y="170" type="line"/>
      <point x="479" y="201" type="line"/>
      <point x="329" y="361" type="line"/>
      <point x="478" y="519" type="line"/>
      <point x="448" y="550" type="line"/>
      <point x="300" y="391" type="line"/>
      <point x="150" y="550" type="line"/>
      <point x="121" y="519" type="line"/>
      <point x="270" y="360" type="line"/>
      <point x="121" y="200" type="line"/>
    </contour>
  </outline>
</glyph>
<glyph name="germandbls" format="2">
  <advance width="602"/>
  <unicode hex="00DF"/>
  <outline>
    <contour>
      <point x="398" y="-10" type="curve" smooth="yes"/>
      <point x="498" y="-10"/>
      <point x="565" y="45"/>
      <point x="565" y="127" type="curve" smooth="yes"/>
      <point x="565" y="199"/>
      <point x="533" y="234"/>
      <point x="450" y="265" type="curve" smooth="yes"/>
      <point x="391" y="287" type="line" smooth="yes"/>
      <point x="326" y="311"/>
      <point x="312" y="324"/>
      <point x="312" y="358" type="curve" smooth="yes"/>
      <point x="312" y="441"/>
      <point x="481" y="440"/>
      <point x="481" y="575" type="curve" smooth="yes"/>
      <point x="481" y="667"/>
      <point x="406" y="737"/>
      <point x="290" y="737" type="curve" smooth="yes"/>
      <point x="157" y="737"/>
      <point x="77" y="645"/>
      <point x="77" y="503" type="curve" smooth="yes"/>
      <point x="77" y="0" type="line"/>
      <point x="127" y="0" type="line"/>
      <point x="127" y="502" type="line" smooth="yes"/>
      <point x="127" y="618"/>
      <point x="181" y="691"/>
      <point x="291" y="691" type="curve" smooth="yes"/>
      <point x="375" y="691"/>
      <point x="433" y="641"/>
      <point x="433" y="577" type="curve" smooth="yes"/>
      <point x="433" y="464"/>
      <point x="264" y="475"/>
      <point x="264" y="356" type="curve" smooth="yes"/>
      <point x="264" y="299"/>
      <point x="290" y="274"/>
      <point x="382" y="241" type="curve" smooth="yes"/>
      <point x="440" y="220" type="line" smooth="yes"/>
      <point x="492" y="201"/>
      <point x="517" y="175"/>
      <point x="517" y="126" type="curve" smooth="yes"/>
      <point x="517" y="66"/>
      <point x="469" y="34"/>
      <point x="401" y="34" type="curve" smooth="yes"/>
      <point x="349" y="34"/>
      <point x="302" y="52"/>
      <point x="267" y="87" type="curve"/>
      <point x="233" y="53" type="line"/>
      <point x="279" y="10"/>
      <point x="333" y="-10"/>
    </contour>
  </outline>
</glyph>
<glyph name="oslash" format="2">
  <advance width="572"/>
  <unicode hex="00F8"/>
  <outline>
    <contour>
      <point x="286" y="-10" type="curve" smooth="yes"/>
      <point x="416" y="-10"/>
      <point x="516" y="98"/>
      <point x="516" y="240" type="curve" smooth="yes"/>
      <point x="516" y="308"/>
      <point x="493" y="369"/>
      <point x="454" y="413" type="curve"/>
      <point x="509" y="481" type="line"/>
      <point x="454" y="481" type="line"/>
      <point x="423" y="442" type="line"/>
      <point x="385" y="472"/>
      <point x="338" y="489"/>
      <point x="286" y="489" type="curve" smooth="yes"/>
      <point x="156" y="489"/>
      <point x="56" y="381"/>
      <point x="56" y="240" type="curve" smooth="yes"/>
      <point x="56" y="172"/>
      <point x="79" y="111"/>
      <point x="118" y="67" type="curve"/>
      <point x="63" y="0" type="line"/>
      <point x="118" y="0" type="line"/>
      <point x="148" y="37" type="line"/>
      <point x="186" y="7"/>
      <point x="234" y="-10"/>
    </contour>
    <contour>
      <point x="148" y="105" type="line"/>
      <point x="122" y="140"/>
      <point x="106" y="187"/>
      <point x="106" y="240" type="curve" smooth="yes"/>
      <point x="106" y="356"/>
      <point x="183" y="443"/>
      <point x="286" y="443" type="curve" smooth="yes"/>
      <point x="327" y="443"/>
      <point x="363" y="429"/>
      <point x="393" y="406" type="curve"/>
    </contour>
    <contour>
      <point x="286" y="36" type="curve" smooth="yes"/>
      <point x="245" y="36"/>
      <point x="208" y="50"/>
      <point x="178" y="74" type="curve"/>
      <point x="423" y="375" type="line"/>
      <point x="450" y="340"/>
      <point x="466" y="293"/>
      <point x="466" y="240" type="curve" smooth="yes"/>
      <point x="466" y="123"/>
      <point x="389" y="36"/>
    </contour>
  </outline>
</glyph>
<glyph name="thorn" format="2">
  <advance width="567"/>
  <unicode hex="00FE"/>
  <outline>
    <contour>
      <point x="78" y="-209" type="line"/>
      <point x="128" y="-209" type="line"/>
      <point x="128" y="62" type="line"/>
      <point x="169" y="15"/>
      <point x="225" y="-8"/>
      <point x="284" y="-8" type="curve" smooth="yes"/>
      <point x="415" y="-8"/>
      <point x="511" y="103"/>
      <point x="511" y="240" type="curve" smooth="yes"/>
      <point x="511" y="378"/>
      <point x="414" y="487"/>
      <point x="286" y="487" type="curve" smooth="yes"/>
      <point x="223" y="487"/>
      <point x="168" y="464"/>
      <point x="128" y="414" type="curve"/>
      <point x="128" y="737" type="line"/>
      <point x="78" y="725" type="line"/>
    </contour>
    <contour>
      <point x="278" y="441" type="curve" smooth="yes"/>
      <point x="381" y="441"/>
      <point x="461" y="356"/>
      <point x="461" y="239" type="curve" smooth="yes"/>
      <point x="461" y="123"/>
      <point x="383" y="38"/>
      <point x="278" y="38" type="curve" smooth="yes"/>
      <point x="215" y="38"/>
      <point x="160" y="67"/>
      <point x="128" y="112" type="curve"/>
      <point x="128" y="368" type="line"/>
      <point x="160" y="413"/>
      <point x="214" y="441"/>
    </contour>
  </outline>
</glyph>
<glyph name="Aogonek" format="2">
  <advance width="639"/>
  <unicode hex="0104"/>
  <outline>
    <contour>
      <point x="584" y="-231" type="curve" smooth="yes"/>
      <point x="610" y="-231"/>
      <point x="634" y="-224"/>
      <point x="651" y="-213" type="curve"/>
      <point x="639" y="-182" type="line"/>
      <point x="626" y="-190"/>
      <point x="607" y="-195"/>
      <point x="590" y="-195" type="curve" smooth="yes"/>
      <point x="547" y="-195"/>
      <point x="518" y="-174"/>
      <point x="518" y="-134" type="curve" smooth="yes"/>
      <point x="518" y="-97"/>
      <point x="544" y="-56"/>
      <point x="628" y="0" type="curve"/>
      <point x="352" y="700" type="line"/>
      <point x="287" y="700" type="line"/>
      <point x="11" y="0" type="line"/>
      <point x="65" y="0" type="line"/>
      <point x="155" y="234" type="line"/>
      <point x="483" y="234" type="line"/>
      <point x="574" y="0" type="line"/>
      <point x="579" y="0" type="line"/>
      <point x="504" y="-55"/>
      <point x="478" y="-96"/>
      <point x="478" y="-142" type="curve" smooth="yes"/>
      <point x="478" y="-193"/>
      <point x="516" y="-231"/>
    </contour>
    <contour>
      <point x="172" y="276" type="line"/>
      <point x="319" y="656" type="line"/>
      <point x="467" y="276" type="line"/>
    </contour>
  </outline>
</glyph>
<glyph name="Dcroat" format="2">
  <advance width="720"/>
  <unicode hex="0110"/>
  <outline>
    <contour>
      <point x="92" y="0" type="line"/>
      <point x="310" y="0" type="line" smooth="yes"/>
      <point x="519" y="0"/>
      <point x="660" y="150"/>
      <point x="660" y="350" type="curve" smooth="yes"/>
      <point x="660" y="550"/>
      <point x="519" y="700"/>
      <point x="310" y="700" type="curve" smooth="yes"/>
      <point x="92" y="700" type="line"/>
      <point x="92" y="373" type="line"/>
      <point x="26" y="373" type="line"/>
      <point x="26" y="329" type="line"/>
      <point x="92" y="329" type="line"/>
    </contour>
    <contour>
      <point x="144" y="47" type="line"/>
      <point x="144" y="329" type="line"/>
      <point x="350" y="329" type="line"/>
      <point x="350" y="373" type="line"/>
      <point x="144" y="373" type="line"/>
      <point x="144" y="653" type="line"/>
      <point x="316" y="653" type="line" smooth="yes"/>
      <point x="482" y="653"/>
      <point x="608" y="523"/>
      <point x="608" y="350" type="curve" smooth="yes"/>
      <point x="608" y="177"/>
      <point x="482" y="47"/>
      <point x="316" y="47" type="curve" smooth="yes"/>
    </contour>
  </outline>
</glyph>
<glyph name="dcroat" format="2">
  <advance width="567"/>
  <unicode hex="0111"/>
  <outline>
    <contour>
      <point x="281" y="-8" type="curve" smooth="yes"/>
      <point x="344" y="-8"/>
      <point x="399" y="15"/>
      <point x="439" y="65" type="curve"/>
      <point x="439" y="0" type="line"/>
      <point x="489" y="0" type="line"/>
      <point x="489" y="576" type="line"/>
      <point x="571" y="576" type="line"/>
      <point x="571" y="616" type="line"/>
      <point x="489" y="616" type="line"/>
      <point x="489" y="737" type="line"/>
      <point x="439" y="725" type="line"/>
      <point x="439" y="616" type="line"/>
      <point x="283" y="616" type="line"/>
      <point x="283" y="576" type="line"/>
      <point x="439" y="576" type="line"/>
      <point x="439" y="417" type="line"/>
      <point x="398" y="464"/>
      <point x="342" y="487"/>
      <point x="283" y="487" type="curve" smooth="yes"/>
      <point x="152" y="487"/>
      <point x="56" y="376"/>
      <point x="56" y="239" type="curve" smooth="yes"/>
      <point x="56" y="101"/>
      <point x="153" y="-8"/>
    </contour>
    <contour>
      <point x="289" y="38" type="curve" smooth="yes"/>
      <point x="186" y="38"/>
      <point x="106" y="123"/>
      <point x="106" y="240" type="curve" smooth="yes"/>
      <point x="106" y="356"/>
      <point x="184" y="441"/>
      <point x="289" y="441" type="curve" smooth="yes"/>
      <point x="352" y="441"/>
      <point x="407" y="412"/>
      <point x="439" y="367" type="curve"/>
      <point x="439" y="111" type="line"/>
      <point x="407" y="66"/>
      <point x="353" y="38"/>
    </contour>
  </outline>
</glyph>
<glyph name="Eogonek" format="2">
  <advance width="606"/>
  <unicode hex="0118"/>
  <outline>
    <contour>
      <point x="583" y="-213" type="curve"/>
      <point x="571" y="-182" type="line"/>
      <point x="558" y="-190"/>
      <point x="539" y="-195"/>
      <point x="522" y="-195" type="curve" smooth="yes"/>
      <point x="479" y="-195"/>
      <point x="450" y="-174"/>
      <point x="450" y="-134" type="curve" smooth="yes"/>
      <point x="450" y="-97"/>
      <point x="476" y="-56"/>
      <point x="560" y="0" type="curve"/>
      <point x="560" y="47" type="line"/>
      <point x="144" y="47" type="line"/>
      <point x="144" y="330" type="line"/>
      <point x="429" y="330" type="line"/>
      <point x="429" y="377" type="line"/>
      <point x="144" y="377" type="line"/>
      <point x="144" y="653" type="line"/>
      <point x="556" y="653" type="line"/>
      <point x="556" y="700" type="line"/>
      <point x="92" y="700" type="line"/>
      <point x="92" y="0" type="line"/>
      <point x="511" y="0" type="line"/>
      <point x="436" y="-55"/>
      <point x="410" y="-96"/>
      <point x="410" y="-142" type="curve" smooth="yes"/>
      <point x="410" y="-193"/>
      <point x="448" y="-231"/>
      <point x="516" y="-231" type="curve" smooth="yes"/>
      <point x="542" y="-231"/>
      <point x="566" y="-224"/>
    </contour>
  </outline>
</glyph>
<glyph name="eogonek" format="2">
  <advance width="548"/>
  <unicode hex="0119"/>
  <outline>
    <contour>
      <point x="312" y="-231" type="curve" smooth="yes"/>
      <point x="338" y="-231"/>
      <point x="362" y="-224"/>
      <point x="379" y="-213" type="curve"/>
      <point x="367" y="-182" type="line"/>
      <point x="354" y="-190"/>
      <point x="335" y="-195"/>
      <point x="318" y="-195" type="curve" smooth="yes"/>
      <point x="275" y="-195"/>
      <point x="246" y="-174"/>
      <point x="246" y="-134" type="curve" smooth="yes"/>
      <point x="246" y="-98"/>
      <point x="271" y="-58"/>
      <point x="351" y="-3" type="curve"/>
      <point x="391" y="6"/>
      <point x="428" y="24"/>
      <point x="464" y="52" type="curve"/>
      <point x="434" y="89" type="line"/>
      <point x="399" y="57"/>
      <point x="345" y="36"/>
      <point x="292" y="36" type="curve" smooth="yes"/>
      <point x="189" y="36"/>
      <point x="110" y="118"/>
      <point x="106" y="231" type="curve"/>
      <point x="495" y="231" type="line"/>
      <point x="495" y="250" type="line" smooth="yes"/>
      <point x="495" y="385"/>
      <point x="400" y="489"/>
      <point x="278" y="489" type="curve" smooth="yes"/>
      <point x="156" y="489"/>
      <point x="56" y="381"/>
      <point x="56" y="240" type="curve" smooth="yes"/>
      <point x="56" y="98"/>
      <point x="158" y="-12"/>
      <point x="294" y="-10" type="curve"/>
      <point x="229" y="-60"/>
      <point x="206" y="-99"/>
      <point x="206" y="-142" type="curve" smooth="yes"/>
      <point x="206" y="-193"/>
      <point x="244" y="-231"/>
    </contour>
    <contour>
      <point x="108" y="272" type="line"/>
      <point x="121" y="372"/>
      <point x="192" y="443"/>
      <point x="278" y="443" type="curve" smooth="yes"/>
      <point x="366" y="443"/>
      <point x="435" y="370"/>
      <point x="444" y="272" type="curve"/>
    </contour>
  </outline>
</glyph>
<glyph name="hcircumflex" format="2">
  <advance width="535"/>
  <unicode hex="0125"/>
  <outline>
    <contour>
      <point x="78" y="0" type="line"/>
      <point x="128" y="0" type="line"/>
      <point x="128" y="361" type="line"/>
      <point x="159" y="417"/>
      <point x="209" y="445"/>
      <point x="267" y="445" type="curve" smooth="yes"/>
      <point x="355" y="445"/>
      <point x="409" y="386"/>
      <point x="409" y="293" type="curve" smooth="yes"/>
      <point x="409" y="0" type="line"/>
      <point x="459" y="0" type="line"/>
      <point x="459" y="307" type="line" smooth="yes"/>
      <point x="459" y="415"/>
      <point x="387" y="489"/>
      <point x="281" y="489" type="curve" smooth="yes"/>
      <point x="214" y="489"/>
      <point x="164" y="459"/>
      <point x="128" y="404" type="curve"/>
      <point x="128" y="727" type="line"/>
      <point x="78" y="727" type="line"/>
    </contour>
    <contour>
      <point x="-38" y="793" type="line"/>
      <point x="4" y="793" type="line"/>
      <point x="100" y="881" type="line"/>
      <point x="198" y="793" type="line"/>
      <point x="240" y="793" type="line"/>
      <point x="130" y="914" type="line"/>
      <point x="72" y="914" type="line"/>
    </contour>
  </outline>
</glyph>
<glyph name="Hbar" format="2">
  <advance width="729"/>
  <unicode hex="0126"/>
  <outline>
    <contour>
      <point x="96" y="0" type="line"/>
      <point x="148" y="0" type="line"/>
      <point x="148" y="329" type="line"/>
      <point x="581" y="329" type="line"/>
      <point x="581" y="0" type="line"/>
      <point x="633" y="0" type="line"/>
      <point x="633" y="528" type="line"/>
      <point x="718" y="528" type="line"/>
      <point x="718" y="572" type="line"/>
      <point x="633" y="572" type="line"/>
      <point x="633" y="700" type="line"/>
      <point x="581" y="700" type="line"/>
      <point x="581" y="572" type="line"/>
      <point x="148" y="572" type="line"/>
      <point x="148" y="700" type="line"/>
      <point x="96" y="700" type="line"/>
      <point x="96" y="572" type="line"/>
      <point x="11" y="572" type="line"/>
      <point x="11" y="528" type="line"/>
      <point x="96" y="528" type="line"/>
    </contour>
    <contour>
      <point x="148" y="376" type="line"/>
      <point x="148" y="528" type="line"/>
      <point x="581" y="528" type="line"/>
      <point x="581" y="376" type="line"/>
    </contour>
  </outline>
</glyph>
<glyph name="Iogonek" format="2">
  <advance width="236"/>
  <unicode hex="012E"/>
  <outline>
    <contour>
      <point x="100" y="-231" type="curve" smooth="yes"/>
      <point x="126" y="-231"/>
      <point x="150" y="-224"/>
      <point x="167" y="-213" type="curve"/>
      <point x="155" y="-182" type="line"/>
      <point x="142" y="-190"/>
      <point x="123" y="-195"/>
      <point x="106" y="-195" type="curve" smooth="yes"/>
      <point x="63" y="-195"/>
      <point x="34" y="-174"/>
      <point x="34" y="-134" type="curve" smooth="yes"/>
      <point x="34" y="-97"/>
      <point x="60" y="-56"/>
      <point x="144" y="0" type="curve"/>
      <point x="144" y="700" type="line"/>
      <point x="92" y="700" type="line"/>
      <point x="92" y="0" type="line"/>
      <point x="95" y="0" type="line"/>
      <point x="20" y="-55"/>
      <point x="-6" y="-96"/>
      <point x="-6" y="-142" type="curve" smooth="yes"/>
      <point x="-6" y="-193"/>
      <point x="32" y="-231"/>
    </contour>
  </outline>
</glyph>
<glyph name="iogonek" format="2">
  <advance width="206"/>
  <unicode hex="012F"/>
  <outline>
    <contour>
      <point x="103" y="608" type="curve" smooth="yes"/>
      <point x="128" y="608"/>
      <point x="149" y="629"/>
      <point x="149" y="654" type="curve" smooth="yes"/>
      <point x="149" y="679"/>
      <point x="128" y="700"/>
      <point x="103" y="700" type="curve" smooth="yes"/>
      <point x="78" y="700"/>
      <point x="57" y="679"/>
      <point x="57" y="654" type="curve" smooth="yes"/>
      <point x="57" y="629"/>
      <point x="78" y="608"/>
    </contour>
    <contour>
      <point x="84" y="-231" type="curve" smooth="yes"/>
      <point x="110" y="-231"/>
      <point x="134" y="-224"/>
      <point x="151" y="-213" type="curve"/>
      <point x="139" y="-182" type="line"/>
      <point x="126" y="-190"/>
      <point x="107" y="-195"/>
      <point x="90" y="-195" type="curve" smooth="yes"/>
      <point x="47" y="-195"/>
      <point x="18" y="-174"/>
      <point x="18" y="-134" type="curve" smooth="yes"/>
      <point x="18" y="-97"/>
      <point x="44" y="-56"/>
      <point x="128" y="0" type="curve"/>
      <point x="128" y="481" type="line"/>
      <point x="78" y="481" type="line"/>
      <point x="78" y="0" type="line"/>
      <point x="80" y="0" type="line"/>
      <point x="5" y="-55"/>
      <point x="-22" y="-96"/>
      <point x="-22" y="-142" type="curve" smooth="yes"/>
      <point x="-22" y="-193"/>
      <point x="16" y="-231"/>
    </contour>
  </outline>
</glyph>
<glyph name="dotlessi" format="2">
  <advance width="206"/>
  <unicode hex="0131"/>
  <anchor x="103" y="481" name="top"/>
  <anchor x="128" y="0" name="bottom"/>
  <outline>
    <contour>
      <point x="78" y="0" type="line"/>
      <point x="128" y="0" type="line"/>
      <point x="128" y="481" type="line"/>
      <point x="78" y="481" type="line"/>
    </contour>
  </outline>
</glyph>
<glyph name="kgreenlandic" format="2">
  <advance width="459"/>
  <unicode hex="0138"/>
  <outline>
    <contour>
      <point x="78" y="0" type="line"/>
      <point x="128" y="0" type="line"/>
      <point x="128" y="234" type="line"/>
      <point x="378" y="0" type="line"/>
      <point x="448" y="0" type="line"/>
      <point x="177" y="249" type="line"/>
      <point x="437" y="481" type="line"/>
      <point x="372" y="481" type="line"/>
      <point x="128" y="260" type="line"/>
      <point x="128" y="481" type="line"/>
      <point x="78" y="481" type="line"/>
    </contour>
  </outline>
</glyph>
<glyph name="lacute" format="2">
  <advance width="206"/>
  <unicode hex="013A"/>
  <outline>
    <contour>
      <point x="78" y="0" type="line"/>
      <point x="128" y="0" type="line"/>
      <point x="128" y="727" type="line"/>
      <point x="78" y="727" type="line"/>
    </contour>
    <contour>
      <point x="65" y="798" type="line"/>
      <point x="113" y="798" type="line"/>
      <point x="245" y="914" type="line"/>
      <point x="170" y="914" type="line"/>
    </contour>
  </outline>
</glyph>
<glyph name="Lslash" format="2">
  <advance width="611"/>
  <unicode hex="0141"/>
  <outline>
    <contour>
      <point x="107" y="0" type="line"/>
      <point x="566" y="0" type="line"/>
      <point x="566" y="47" type="line"/>
      <point x="159" y="47" type="line"/>
      <point x="159" y="276" type="line"/>
      <point x="341" y="430" type="line"/>
      <point x="341" y="489" type="line"/>
      <point x="159" y="335" type="line"/>
      <point x="159" y="700" type="line"/>
      <point x="107" y="700" type="line"/>
      <point x="107" y="297" type="line"/>
      <point x="15" y="220" type="line"/>
      <point x="15" y="161" type="line"/>
      <point x="107" y="238" type="line"/>
    </contour>
  </outline>
</glyph>
<glyph name="eng" format="2">
  <advance width="535"/>
  <unicode hex="014B"/>
  <outline>
    <contour>
      <point x="351" y="-219" type="curve" smooth="yes"/>
      <point x="421" y="-219"/>
      <point x="459" y="-177"/>
      <point x="459" y="-105" type="curve" smooth="yes"/>
      <point x="459" y="307" type="line" smooth="yes"/>
      <point x="459" y="415"/>
      <point x="387" y="489"/>
      <point x="281" y="489" type="curve" smooth="yes"/>
      <point x="214" y="489"/>
      <point x="164" y="459"/>
      <point x="128" y="404" type="curve"/>
      <point x="128" y="481" type="line"/>
      <point x="78" y="481" type="line"/>
      <point x="78" y="0" type="line"/>
      <point x="128" y="0" type="line"/>
      <point x="128" y="361" type="line"/>
      <point x="159" y="417"/>
      <point x="209" y="445"/>
      <point x="267" y="445" type="curve" smooth="yes"/>
      <point x="355" y="445"/>
      <point x="409" y="386"/>
      <point x="409" y="293" type="curve" smooth="yes"/>
      <point x="409" y="-102" type="line" smooth="yes"/>
      <point x="409" y="-151"/>
      <point x="392" y="-173"/>
      <point x="348" y="-173" type="curve" smooth="yes"/>
      <point x="337" y="-173"/>
      <point x="325" y="-170"/>
      <point x="315" y="-167" type="curve"/>
      <point x="315" y="-215" type="line"/>
      <point x="326" y="-217"/>
      <point x="337" y="-219"/>
    </contour>
  </outline>
</glyph>
<glyph name="tcaron" format="2">
  <advance width="357"/>
  <unicode hex="0165"/>
  <outline>
    <contour>
      <point x="244" y="549" type="line"/>
      <point x="280" y="549" type="line"/>
      <point x="299" y="737" type="line"/>
      <point x="247" y="725" type="line"/>
    </contour>
    <contour>
      <point x="241" y="-10" type="curve" smooth="yes"/>
      <point x="268" y="-10"/>
      <point x="292" y="-6"/>
      <point x="319" y="3" type="curve"/>
      <point x="319" y="50" type="line"/>
      <point x="295" y="41"/>
      <point x="279" y="36"/>
      <point x="250" y="36" type="curve" smooth="yes"/>
      <point x="198" y="36"/>
      <point x="178" y="58"/>
      <point x="178" y="113" type="curve" smooth="yes"/>
      <point x="178" y="438" type="line"/>
      <point x="319" y="438" type="line"/>
      <point x="319" y="481" type="line"/>
      <point x="178" y="481" type="line"/>
      <point x="178" y="625" type="line"/>
      <point x="128" y="612" type="line"/>
      <point x="128" y="481" type="line"/>
      <point x="27" y="481" type="line"/>
      <point x="27" y="438" type="line"/>
      <point x="128" y="438" type="line"/>
      <point x="128" y="97" type="line" smooth="yes"/>
      <point x="128" y="30"/>
      <point x="166" y="-10"/>
    </contour>
  </outline>
</glyph>
<glyph name="Tbar" format="2">
  <advance width="604"/>
  <unicode hex="0166"/>
  <outline>
    <contour>
      <point x="276" y="0" type="line"/>
      <point x="328" y="0" type="line"/>
      <point x="328" y="329" type="line"/>
      <point x="490" y="329" type="line"/>
      <point x="490" y="373" type="line"/>
      <point x="328" y="373" type="line"/>
      <point x="328" y="653" type="line"/>
      <point x="574" y="653" type="line"/>
      <point x="574" y="700" type="line"/>
      <point x="30" y="700" type="line"/>
      <point x="30" y="653" type="line"/>
      <point x="276" y="653" type="line"/>
      <point x="276" y="373" type="line"/>
      <point x="114" y="373" type="line"/>
      <point x="114" y="329" type="line"/>
      <point x="276" y="329" type="line"/>
    </contour>
  </outline>
</glyph>
<glyph name="uogonek" format="2">
  <advance width="535"/>
  <unicode hex="0173"/>
  <outline>
    <contour>
      <point x="413" y="-231" type="curve" smooth="yes"/>
      <point x="439" y="-231"/>
      <point x="463" y="-224"/>
      <point x="480" y="-213" type="curve"/>
      <point x="468" y="-182" type="line"/>
      <point x="455" y="-190"/>
      <point x="436" y="-195"/>
      <point x="419" y="-195" type="curve" smooth="yes"/>
      <point x="376" y="-195"/>
      <point x="347" y="-174"/>
      <point x="347" y="-134" type="curve" smooth="yes"/>
      <point x="347" y="-97"/>
      <point x="373" y="-56"/>
      <point x="457" y="0" type="curve"/>
      <point x="457" y="481" type="line"/>
      <point x="407" y="481" type="line"/>
      <point x="407" y="120" type="line"/>
      <point x="376" y="64"/>
      <point x="326" y="36"/>
      <point x="268" y="36" type="curve" smooth="yes"/>
      <point x="180" y="36"/>
      <point x="126" y="95"/>
      <point x="126" y="188" type="curve" smooth="yes"/>
      <point x="126" y="481" type="line"/>
      <point x="76" y="481" type="line"/>
      <point x="76" y="174" type="line" smooth="yes"/>
      <point x="76" y="66"/>
      <point x="148" y="-8"/>
      <point x="254" y="-8" type="curve" smooth="yes"/>
      <point x="321" y="-8"/>
      <point x="371" y="22"/>
      <point x="407" y="77" type="curve"/>
      <point x="407" y="0" type="line"/>
      <point x="408" y="0" type="line"/>
      <point x="333" y="-55"/>
      <point x="307" y="-96"/>
      <point x="307" y="-142" type="curve" smooth="yes"/>
      <point x="307" y="-193"/>
      <point x="345" y="-231"/>
    </contour>
  </outline>
</glyph>
<glyph name="dotlessj" format="2">
  <advance width="206"/>
  <unicode hex="0237"/>
  <anchor x="103" y="481" name="top"/>
  <outline>
    <contour>
      <point x="20" y="-219" type="curve" smooth="yes"/>
      <point x="90" y="-219"/>
      <point x="128" y="-177"/>
      <point x="128" y="-105" type="curve" smooth="yes"/>
      <point x="128" y="481" type="line"/>
      <point x="78" y="481" type="line"/>
      <point x="78" y="-102" type="line" smooth="yes"/>
      <point x="78" y="-151"/>
      <point x="61" y="-173"/>
      <point x="17" y="-173" type="curve" smooth="yes"/>
      <point x="4" y="-173"/>
      <point x="-5" y="-170"/>
      <point x="-16" y="-167" type="curve"/>
      <point x="-16" y="-215" type="line"/>
      <point x="-4" y="-217"/>
      <point x="6" y="-219"/>
    </contour>
  </outline>
</glyph>
<glyph name="tilde" format="2">
  <advance width="600"/>
  <unicode hex="02DC"/>
  <outline>
    <contour>
      <point x="180" y="577" type="line"/>
      <point x="191" y="624"/>
      <point x="205" y="640"/>
      <point x="231" y="640" type="curve"/>
      <point x="274" y="640"/>
      <point x="316" y="580"/>
      <point x="373" y="580" type="curve" smooth="yes"/>
      <point x="411" y="580"/>
      <point x="444" y="610"/>
      <point x="461" y="675" type="curve"/>
      <point x="420" y="682" type="line"/>
      <point x="408" y="635"/>
      <point x="397" y="619"/>
      <point x="374" y="619" type="curve"/>
      <point x="332" y="619"/>
      <point x="289" y="679"/>
      <point x="231" y="679" type="curve" smooth="yes"/>
      <point x="190" y="679"/>
      <point x="156" y="649"/>
      <point x="139" y="584" type="curve"/>
    </contour>
  </outline>
</glyph>
<glyph name="emdash" format="2">
  <advance width="689"/>
  <unicode hex="2014"/>
  <outline>
    <contour>
      <point x="64" y="258" type="line"/>
      <point x="625" y="258" type="line"/>
      <point x="625" y="302" type="line"/>
      <point x="64" y="302" type="line"/>
    </contour>
  </outline>
</glyph>
<glyph name="uni2074" format="2">
  <advance width="320"/>
  <unicode hex="2074"/>
  <outline>
    <contour>
      <point x="220" y="350" type="line"/>
      <point x="260" y="350" type="line"/>
      <point x="260" y="442" type="line"/>
      <point x="302" y="442" type="line"/>
      <point x="302" y="477" type="line"/>
      <point x="260" y="477" type="line"/>
      <point x="260" y="700" type="line"/>
      <point x="217" y="700" type="line"/>
      <point x="20" y="472" type="line"/>
      <point x="20" y="442" type="line"/>
      <point x="220" y="442" type="line"/>
    </contour>
    <contour>
      <point x="71" y="477" type="line"/>
      <point x="220" y="649" type="line"/>
      <point x="220" y="477" type="line"/>
    </contour>
  </outline>
</glyph>
<glyph name="uni2078" format="2">
  <advance width="324"/>
  <unicode hex="2078"/>
  <outline>
    <contour>
      <point x="162" y="345" type="curve" smooth="yes"/>
      <point x="237" y="345"/>
      <point x="293" y="387"/>
      <point x="293" y="444" type="curve" smooth="yes"/>
      <point x="293" y="486"/>
      <point x="261" y="521"/>
      <point x="214" y="532" type="curve"/>
      <point x="253" y="546"/>
      <point x="280" y="576"/>
      <point x="280" y="613" type="curve" smooth="yes"/>
      <point x="280" y="666"/>
      <point x="229" y="705"/>
      <point x="161" y="705" type="curve" smooth="yes"/>
      <point x="95" y="705"/>
      <point x="44" y="667"/>
      <point x="44" y="613" type="curve" smooth="yes"/>
      <point x="44" y="576"/>
      <point x="69" y="546"/>
      <point x="108" y="532" type="curve"/>
      <point x="61" y="520"/>
      <point x="30" y="486"/>
      <point x="30" y="444" type="curve" smooth="yes"/>
      <point x="30" y="387"/>
      <point x="86" y="345"/>
    </contour>
    <contour>
      <point x="162" y="549" type="curve" smooth="yes"/>
      <point x="116" y="549"/>
      <point x="83" y="577"/>
      <point x="83" y="611" type="curve" smooth="yes"/>
      <point x="83" y="647"/>
      <point x="117" y="672"/>
      <point x="162" y="672" type="curve" smooth="yes"/>
      <point x="205" y="672"/>
      <point x="240" y="647"/>
      <point x="240" y="611" type="curve" smooth="yes"/>
      <point x="240" y="577"/>
      <point x="205" y="549"/>
    </contour>
    <contour>
      <point x="162" y="378" type="curve" smooth="yes"/>
      <point x="110" y="378"/>
      <point x="70" y="408"/>
      <point x="70" y="446" type="curve" smooth="yes"/>
      <point x="70" y="487"/>
      <point x="109" y="516"/>
      <point x="162" y="516" type="curve" smooth="yes"/>
      <point x="214" y="516"/>
      <point x="253" y="487"/>
      <point x="253" y="446" type="curve" smooth="yes"/>
      <point x="253" y="408"/>
      <point x="214" y="378"/>
    </contour>
  </outline>
</glyph>
<glyph name="uni2081" format="2">
  <advance width="154"/>
  <unicode hex="2081"/>
  <guideline x="21" y="353" angle="90.0" identifier="bulcO3QODR"/>
  <outline>
    <contour>
      <point x="81" y="0" type="line"/>
      <point x="121" y="0" type="line"/>
      <point x="121" y="350" type="line"/>
      <point x="96" y="350" type="line"/>
      <point x="21" y="318" type="line"/>
      <point x="21" y="281" type="line"/>
      <point x="81" y="307" type="line"/>
    </contour>
  </outline>
</glyph>
<glyph name="uni2082" format="2">
  <advance width="285"/>
  <unicode hex="2082"/>
  <outline>
    <contour>
      <point x="26" y="0" type="line"/>
      <point x="263" y="0" type="line"/>
      <point x="263" y="35" type="line"/>
      <point x="81" y="35" type="line"/>
      <point x="190" y="139" type="line" smooth="yes"/>
      <point x="241" y="188"/>
      <point x="258" y="213"/>
      <point x="258" y="255" type="curve" smooth="yes"/>
      <point x="258" y="313"/>
      <point x="209" y="355"/>
      <point x="141" y="355" type="curve" smooth="yes"/>
      <point x="99" y="355"/>
      <point x="60" y="339"/>
      <point x="20" y="305" type="curve"/>
      <point x="43" y="275" type="line"/>
      <point x="80" y="307"/>
      <point x="106" y="320"/>
      <point x="140" y="320" type="curve" smooth="yes"/>
      <point x="185" y="320"/>
      <point x="218" y="292"/>
      <point x="218" y="252" type="curve" smooth="yes"/>
      <point x="218" y="220"/>
      <point x="204" y="197"/>
      <point x="163" y="158" type="curve" smooth="yes"/>
      <point x="26" y="30" type="line"/>
    </contour>
  </outline>
</glyph>
<glyph name="uni2083" format="2">
  <advance width="307"/>
  <unicode hex="2083"/>
  <outline>
    <contour>
      <point x="148" y="-5" type="curve"/>
      <point x="224" y="-5"/>
      <point x="277" y="37"/>
      <point x="277" y="96" type="curve"/>
      <point x="277" y="136"/>
      <point x="244" y="170"/>
      <point x="191" y="179" type="curve"/>
      <point x="238" y="194"/>
      <point x="264" y="226"/>
      <point x="264" y="260" type="curve"/>
      <point x="264" y="315"/>
      <point x="214" y="355"/>
      <point x="147" y="355" type="curve"/>
      <point x="101" y="355"/>
      <point x="61" y="339"/>
      <point x="25" y="310" type="curve"/>
      <point x="48" y="280" type="line"/>
      <point x="81" y="306"/>
      <point x="110" y="320"/>
      <point x="146" y="320" type="curve"/>
      <point x="191" y="320"/>
      <point x="224" y="293"/>
      <point x="224" y="258" type="curve"/>
      <point x="224" y="222"/>
      <point x="193" y="191"/>
      <point x="142" y="191" type="curve"/>
      <point x="115" y="191" type="line"/>
      <point x="115" y="160" type="line"/>
      <point x="145" y="160" type="line"/>
      <point x="203" y="160"/>
      <point x="237" y="134"/>
      <point x="237" y="96" type="curve"/>
      <point x="237" y="58"/>
      <point x="201" y="30"/>
      <point x="148" y="30" type="curve"/>
      <point x="111" y="30"/>
      <point x="77" y="44"/>
      <point x="42" y="69" type="curve"/>
      <point x="20" y="38" type="line"/>
      <point x="58" y="9"/>
      <point x="100" y="-5"/>
    </contour>
  </outline>
</glyph>
<glyph name="uni2084" format="2">
  <advance width="320"/>
  <unicode hex="2084"/>
  <outline>
    <contour>
      <point x="220" y="0" type="line"/>
      <point x="260" y="0" type="line"/>
      <point x="260" y="92" type="line"/>
      <point x="302" y="92" type="line"/>
      <point x="302" y="127" type="line"/>
      <point x="260" y="127" type="line"/>
      <point x="260" y="350" type="line"/>
      <point x="217" y="350" type="line"/>
      <point x="20" y="122" type="line"/>
      <point x="20" y="92" type="line"/>
      <point x="220" y="92" type="line"/>
    </contour>
    <contour>
      <point x="71" y="127" type="line"/>
      <point x="220" y="299" type="line"/>
      <point x="220" y="127" type="line"/>
    </contour>
  </outline>
</glyph>
<glyph name="uni2085" format="2">
  <advance width="303"/>
  <unicode hex="2085"/>
  <outline>
    <contour>
      <point x="145" y="-5" type="curve"/>
      <point x="223" y="-5"/>
      <point x="276" y="40"/>
      <point x="276" y="109" type="curve" smooth="yes"/>
      <point x="276" y="171"/>
      <point x="225" y="214"/>
      <point x="147" y="215" type="curve" smooth="yes"/>
      <point x="122" y="215"/>
      <point x="100" y="211"/>
      <point x="79" y="203" type="curve"/>
      <point x="84" y="315" type="line"/>
      <point x="257" y="315" type="line"/>
      <point x="257" y="350" type="line"/>
      <point x="48" y="350" type="line"/>
      <point x="40" y="177" type="line"/>
      <point x="64" y="170" type="line"/>
      <point x="93" y="179"/>
      <point x="118" y="184"/>
      <point x="146" y="184" type="curve" smooth="yes"/>
      <point x="202" y="184"/>
      <point x="236" y="153"/>
      <point x="236" y="108" type="curve" smooth="yes"/>
      <point x="236" y="62"/>
      <point x="199" y="30"/>
      <point x="144" y="30" type="curve"/>
      <point x="111" y="30"/>
      <point x="80" y="40"/>
      <point x="42" y="64" type="curve"/>
      <point x="22" y="32" type="line"/>
      <point x="62" y="6"/>
      <point x="98" y="-5"/>
    </contour>
  </outline>
</glyph>
<glyph name="uni2086" format="2">
  <advance width="322"/>
  <unicode hex="2086"/>
  <outline>
    <contour>
      <point x="172" y="-5" type="curve" smooth="yes"/>
      <point x="244" y="-5"/>
      <point x="296" y="44"/>
      <point x="296" y="110" type="curve" smooth="yes"/>
      <point x="296" y="172"/>
      <point x="247" y="216"/>
      <point x="178" y="216" type="curve" smooth="yes"/>
      <point x="135" y="216"/>
      <point x="94" y="197"/>
      <point x="69" y="168" type="curve"/>
      <point x="69" y="260"/>
      <point x="116" y="320"/>
      <point x="189" y="320" type="curve" smooth="yes"/>
      <point x="216" y="320"/>
      <point x="240" y="312"/>
      <point x="264" y="302" type="curve"/>
      <point x="277" y="338" type="line"/>
      <point x="250" y="350"/>
      <point x="225" y="355"/>
      <point x="195" y="355" type="curve" smooth="yes"/>
      <point x="95" y="355"/>
      <point x="29" y="279"/>
      <point x="29" y="163" type="curve" smooth="yes"/>
      <point x="29" y="64"/>
      <point x="88" y="-5"/>
    </contour>
    <contour>
      <point x="165" y="184" type="curve" smooth="yes"/>
      <point x="219" y="184"/>
      <point x="256" y="153"/>
      <point x="256" y="109" type="curve" smooth="yes"/>
      <point x="256" y="64"/>
      <point x="222" y="30"/>
      <point x="175" y="30" type="curve" smooth="yes"/>
      <point x="120" y="30"/>
      <point x="79" y="72"/>
      <point x="71" y="136" type="curve"/>
      <point x="95" y="167"/>
      <point x="130" y="184"/>
    </contour>
  </outline>
</glyph>
<glyph name="commaaccent" format="2">
  <advance width="600"/>
  <outline>
    <contour>
      <point x="232" y="-266" type="line"/>
      <point x="269" y="-266" type="line"/>
      <point x="331" y="-86" type="line"/>
      <point x="277" y="-86" type="line"/>
    </contour>
  </outline>
</glyph>
<glyph name="cordinal" format="2">
  <advance width="402"/>
  <outline>
    <contour>
      <point x="227" y="323" type="curve" smooth="yes"/>
      <point x="281" y="323"/>
      <point x="333" y="344"/>
      <point x="371" y="380" type="curve"/>
      <point x="343" y="413" type="line"/>
      <point x="314" y="383"/>
      <point x="270" y="364"/>
      <point x="228" y="364" type="curve" smooth="yes"/>
      <point x="147" y="364"/>
      <point x="84" y="431"/>
      <point x="84" y="517" type="curve" smooth="yes"/>
      <point x="84" y="603"/>
      <point x="147" y="670"/>
      <point x="228" y="670" type="curve" smooth="yes"/>
      <point x="270" y="670"/>
      <point x="313" y="652"/>
      <point x="343" y="621" type="curve"/>
      <point x="371" y="654" type="line"/>
      <point x="333" y="690"/>
      <point x="281" y="711"/>
      <point x="227" y="711" type="curve" smooth="yes"/>
      <point x="122" y="711"/>
      <point x="39" y="626"/>
      <point x="39" y="517" type="curve" smooth="yes"/>
      <point x="39" y="408"/>
      <point x="122" y="323"/>
    </contour>
  </outline>
</glyph>
<glyph name="g.alt" format="2">
  <advance width="510"/>
  <anchor x="255" y="480" name="top"/>
  <outline>
    <contour>
      <point x="253" y="-219" type="curve" smooth="yes"/>
      <point x="401" y="-219"/>
      <point x="495" y="-162"/>
      <point x="495" y="-73" type="curve" smooth="yes"/>
      <point x="495" y="-16"/>
      <point x="454" y="17"/>
      <point x="379" y="21" type="curve" smooth="yes"/>
      <point x="194" y="32" type="line" smooth="yes"/>
      <point x="153" y="34"/>
      <point x="133" y="48"/>
      <point x="133" y="75" type="curve" smooth="yes"/>
      <point x="133" y="105"/>
      <point x="159" y="130"/>
      <point x="198" y="140" type="curve"/>
      <point x="216" y="134"/>
      <point x="236" y="131"/>
      <point x="256" y="131" type="curve" smooth="yes"/>
      <point x="360" y="131"/>
      <point x="444" y="211"/>
      <point x="444" y="310" type="curve" smooth="yes"/>
      <point x="444" y="349"/>
      <point x="431" y="386"/>
      <point x="408" y="415" type="curve"/>
      <point x="416" y="446"/>
      <point x="439" y="464"/>
      <point x="470" y="464" type="curve" smooth="yes"/>
      <point x="491" y="464"/>
      <point x="502" y="463"/>
      <point x="513" y="460" type="curve"/>
      <point x="513" y="516" type="line"/>
      <point x="505" y="517"/>
      <point x="496" y="518"/>
      <point x="489" y="518" type="curve" smooth="yes"/>
      <point x="436" y="518"/>
      <point x="398" y="483"/>
      <point x="393" y="432" type="curve"/>
      <point x="359" y="467"/>
      <point x="310" y="489"/>
      <point x="256" y="489" type="curve" smooth="yes"/>
      <point x="152" y="489"/>
      <point x="68" y="409"/>
      <point x="68" y="310" type="curve" smooth="yes"/>
      <point x="68" y="242"/>
      <point x="107" y="184"/>
      <point x="165" y="153" type="curve"/>
      <point x="117" y="139"/>
      <point x="83" y="104"/>
      <point x="83" y="69" type="curve" smooth="yes"/>
      <point x="83" y="34"/>
      <point x="105" y="7"/>
      <point x="142" y="-7" type="curve"/>
      <point x="76" y="-32"/>
      <point x="45" y="-61"/>
      <point x="45" y="-99" type="curve" smooth="yes"/>
      <point x="45" y="-175"/>
      <point x="122" y="-219"/>
    </contour>
    <contour>
      <point x="256" y="173" type="curve" smooth="yes"/>
      <point x="179" y="173"/>
      <point x="118" y="233"/>
      <point x="118" y="310" type="curve" smooth="yes"/>
      <point x="118" y="387"/>
      <point x="179" y="447"/>
      <point x="256" y="447" type="curve" smooth="yes"/>
      <point x="333" y="447"/>
      <point x="394" y="387"/>
      <point x="394" y="310" type="curve" smooth="yes"/>
      <point x="394" y="233"/>
      <point x="333" y="173"/>
    </contour>
    <contour>
      <point x="245" y="-178" type="curve" smooth="yes"/>
      <point x="153" y="-178"/>
      <point x="95" y="-144"/>
      <point x="95" y="-92" type="curve" smooth="yes"/>
      <point x="95" y="-60"/>
      <point x="126" y="-33"/>
      <point x="178" y="-16" type="curve"/>
      <point x="183" y="-16"/>
      <point x="187" y="-17"/>
      <point x="192" y="-17" type="curve" smooth="yes"/>
      <point x="376" y="-27" type="line" smooth="yes"/>
      <point x="422" y="-30"/>
      <point x="445" y="-46"/>
      <point x="445" y="-78" type="curve" smooth="yes"/>
      <point x="445" y="-139"/>
      <point x="367" y="-178"/>
    </contour>
  </outline>
</glyph>
<glyph name="reversequotedblleft" format="2">
  <advance width="378"/>
  <outline>
    <contour>
      <point x="147" y="538" type="line"/>
      <point x="188" y="538" type="line"/>
      <point x="137" y="750" type="line"/>
      <point x="80" y="750" type="line"/>
    </contour>
    <contour>
      <point x="280" y="538" type="line"/>
      <point x="321" y="538" type="line"/>
      <point x="270" y="750" type="line"/>
      <point x="213" y="750" type="line"/>
    </contour>
  </outline>
</glyph>
<glyph name="reversequoteleft" format="2">
  <advance width="245"/>
  <outline>
    <contour>
      <point x="147" y="538" type="line"/>
      <point x="188" y="538" type="line"/>
      <point x="137" y="750" type="line"/>
      <point x="80" y="750" type="line"/>
    </contour>
  </outline>
</glyph>
